<svg width="64" height="64" viewBox="0 0 64 64" fill="none" xmlns="http://www.w3.org/2000/svg">
<g clip-path="url(#clip0_4796_4120)">
<path fill-rule="evenodd" clip-rule="evenodd" d="M7.82406 7.20149C6.56287 7.83098 5.67471 8.27428 5.44428 7.92752C4.80758 6.99073 9.18085 1.06072 15.0924 0.126217C24.226 -1.32253 32.4926 10.1095 34.9227 13.4701L34.9511 13.5094C39.3439 19.7008 42.0397 26.9057 42.7775 34.4259C42.7024 34.5293 42.6282 34.6333 42.5546 34.7377C46.7266 29.3636 53.2119 25.1627 58.0443 27.1101C63.0914 29.144 64.3346 37.053 63.928 37.2591C63.8344 37.3068 63.6392 36.9589 63.3369 36.42L63.3369 36.4199C62.521 34.9655 60.9249 32.1202 58.4393 31.9063C55.4459 31.6506 52.9076 35.4751 52.4481 36.1674L52.4441 36.1735C50.5851 38.9564 50.1343 41.9546 50.3527 49.3573C50.4735 53.2259 50.771 58.2489 51.5146 64.1285L36.2778 64.1331L36.2776 64.1286H18.9504C19.1944 60.597 19.0581 57.0499 18.5437 53.5466C18.1024 47.6879 16.1342 42.0407 12.8296 37.1515C9.46557 32.7567 5.12123 30.5226 2.44945 29.1486L2.44943 29.1486C0.85617 28.3292 -0.142316 27.8158 0.0165398 27.3323C0.353482 26.3085 5.75153 26.7391 10.5663 28.0034C14.4278 29.0174 20.3425 31.0555 27.0489 36.5203C25.1048 13.7703 20.5745 6.34739 15.7942 5.2683C12.9721 4.63196 9.89514 6.16777 7.82406 7.20149L7.82406 7.20149ZM45.8817 44.2541C45.8813 45.1831 45.554 46.0831 44.9558 46.8008C44.3576 47.5186 43.5254 48.0097 42.6011 48.1905C41.6767 48.3713 40.7173 48.2306 39.8864 47.7923C39.0554 47.3541 38.4044 46.6454 38.0441 45.7871C37.6838 44.9287 37.6367 43.9738 37.9106 43.085C38.1845 42.1962 38.7626 41.4285 39.5464 40.9128C40.3302 40.397 41.2712 40.165 42.209 40.2564C43.1468 40.3478 44.0235 40.7569 44.6897 41.414C45.0684 41.7866 45.3686 42.2294 45.5732 42.7168C45.7778 43.2042 45.8826 43.7267 45.8817 44.2541ZM35.0173 44.2541C35.0168 45.1831 34.6896 46.0831 34.0914 46.8008C33.4931 47.5186 32.661 48.0097 31.7366 48.1905C30.8122 48.3713 29.8528 48.2306 29.0219 47.7923C28.191 47.3541 27.5399 46.6454 27.1796 45.7871C26.8194 44.9287 26.7722 43.9738 27.0461 43.085C27.3201 42.1962 27.8982 41.4285 28.682 40.9128C29.4657 40.397 30.4067 40.165 31.3445 40.2564C32.2824 40.3478 33.159 40.7569 33.8252 41.414C34.2039 41.7866 34.5042 42.2294 34.7087 42.7168C34.9133 43.2042 35.0182 43.7267 35.0173 44.2541Z" fill="black"/>
</g>
<defs>
<clipPath id="clip0_4796_4120">
<rect width="64" height="64" fill="white"/>
</clipPath>
</defs>
</svg>
