<svg width="64" height="64" viewBox="0 0 64 64" fill="none" xmlns="http://www.w3.org/2000/svg">
<path d="M52.6191 21.7986C51.9374 21.5619 51.2508 21.3415 50.5592 21.1373C50.6739 20.663 50.7797 20.186 50.8765 19.7063C52.4365 11.9956 51.4165 5.78361 47.9353 3.73871C44.6021 1.77647 39.1357 3.82137 33.6213 8.7107C33.0791 9.19313 32.548 9.69001 32.028 10.2014C31.6813 9.86166 31.3258 9.5292 30.9614 9.20397C25.1816 3.97585 19.3885 1.77376 15.9113 3.82543C12.5781 5.79174 11.5875 11.631 12.9915 18.9393C13.1319 19.662 13.2897 20.3816 13.4648 21.098C12.6448 21.3352 11.8528 21.5886 11.0955 21.8569C4.32782 24.2622 0 28.0336 0 31.9445C0 35.9855 4.64514 40.0374 11.7022 42.4943C12.2746 42.6921 12.8524 42.876 13.4354 43.0458C13.2461 43.8128 13.0786 44.5884 12.9328 45.3726C11.5995 52.5548 12.6395 58.2559 15.966 60.21C19.4019 62.2278 25.1656 60.1544 30.7841 55.1539C31.2285 54.7582 31.6729 54.3404 32.1173 53.9004C32.6791 54.4524 33.2568 54.9882 33.8506 55.5076C39.2904 60.275 44.6621 62.2007 47.9833 60.2411C51.4165 58.2165 52.5325 52.0913 51.0832 44.6394C50.9721 44.0703 50.8441 43.4894 50.6992 42.8967C51.1045 42.7748 51.5014 42.6487 51.8898 42.5186C59.2229 40.0428 64 36.0397 64 31.9486C63.9973 28.0187 59.5309 24.2229 52.6191 21.7986ZM35.4199 10.8112C40.1437 6.62244 44.5595 4.96917 46.5727 6.15085C48.7153 7.40977 49.5486 12.4861 48.202 19.1439C48.1131 19.5775 48.0171 20.0098 47.914 20.4408C45.095 19.789 42.2363 19.3291 39.357 19.0639C37.7085 16.6503 35.9013 14.3526 33.9479 12.1866C34.4261 11.715 34.9159 11.2566 35.4172 10.8112H35.4199ZM18.8965 35.2863C19.4752 36.4246 20.0801 37.5489 20.7111 38.6592C21.3538 39.7921 22.0235 40.9083 22.7204 42.0078C20.7392 41.7888 18.7705 41.4663 16.822 41.0415C17.3873 39.1823 18.0832 37.2512 18.8965 35.2863ZM18.8965 28.7369C18.0966 26.814 17.4193 24.9222 16.8633 23.0955C18.6899 22.6794 20.6365 22.3393 22.6657 22.0818C21.9858 23.1605 21.3316 24.255 20.7031 25.3653C20.0747 26.4756 19.4712 27.5995 18.8925 28.7369H18.8965ZM20.3498 32.0123C21.1925 30.2262 22.1 28.4745 23.0724 26.7571C24.0439 25.0405 25.0781 23.3633 26.1749 21.7254C28.0788 21.5791 30.0307 21.5018 32.0027 21.5018C33.9746 21.5018 35.9385 21.5791 37.8411 21.7268C38.9264 23.3611 39.9543 25.0324 40.925 26.7408C41.8956 28.4492 42.8151 30.1928 43.6835 31.9716C42.8267 33.764 41.9094 35.523 40.9316 37.2485C39.9619 38.965 38.9397 40.6472 37.8651 42.2951C35.9652 42.4306 33.9986 42.5051 31.9987 42.5051C29.9988 42.5051 28.0695 42.4414 26.2042 42.3181C25.0994 40.6748 24.0568 38.9903 23.0764 37.2648C22.096 35.5392 21.1858 33.7884 20.3458 32.0123H20.3498ZM43.2982 38.6402C43.9426 37.5037 44.5613 36.3523 45.1541 35.186C45.9668 37.0589 46.6842 38.9731 47.3034 40.9209C45.3319 41.3721 43.3386 41.7182 41.3316 41.9576C42.0089 40.8654 42.6644 39.7596 43.2982 38.6402ZM45.1275 28.7383C44.5373 27.5954 43.9235 26.4662 43.2862 25.3504C42.664 24.2501 42.0156 23.1632 41.3409 22.09C43.3822 22.3529 45.3408 22.7025 47.1767 23.1294C46.5864 25.0327 45.9025 26.9047 45.1275 28.7383ZM32.0293 14.1773C33.3607 15.6559 34.6178 17.2018 35.7958 18.8092C33.2759 18.6872 30.7543 18.6872 28.2308 18.8092C29.4748 17.1369 30.7481 15.5853 32.0293 14.1773ZM17.2873 6.23351C19.4285 4.97052 24.163 6.77557 29.1535 11.2841C29.4721 11.5727 29.7934 11.8749 30.1134 12.188C28.15 14.3537 26.3301 16.6493 24.6656 19.0599C21.7928 19.323 18.9397 19.7756 16.1247 20.415C15.962 19.7501 15.8153 19.0807 15.6847 18.4067C14.4781 12.1419 15.2767 7.41926 17.2873 6.23351ZM14.1661 40.3626C13.6328 40.2081 13.1061 40.0406 12.5861 39.8599C9.46627 38.7758 6.88905 37.361 5.11979 35.8202C3.53585 34.4393 2.73322 33.0611 2.73322 31.9445C2.73322 29.5717 6.20774 26.5443 12.0022 24.4913C12.7301 24.2338 13.4643 23.9984 14.2047 23.7852C15.0653 26.5962 16.1075 29.3463 17.3246 32.0177C16.093 34.726 15.0379 37.5137 14.1661 40.3626ZM28.9828 53.0562C26.4989 55.2678 24.011 56.8357 21.8178 57.6257C19.8472 58.3344 18.2779 58.3548 17.3299 57.7978C15.3114 56.6121 14.4714 52.0331 15.6167 45.8916C15.7527 45.1688 15.9082 44.4461 16.0833 43.7234C18.9266 44.3459 21.8082 44.771 24.7083 44.9958C26.389 47.419 28.2239 49.7276 30.2014 51.907C29.8041 52.3041 29.3974 52.6862 28.9828 53.0562ZM32.1053 49.9096C30.8094 48.4853 29.5161 46.9093 28.2548 45.2154C29.4806 45.2642 30.7285 45.2885 31.9987 45.2885C33.3026 45.2885 34.5932 45.2601 35.8652 45.2018C34.6914 46.835 33.4365 48.4062 32.1053 49.9096ZM48.7073 53.7839C48.326 55.8762 47.5594 57.272 46.6114 57.8303C44.5941 59.0201 40.281 57.4739 35.6305 53.3963C35.0972 52.9302 34.5639 52.4301 34.0213 51.9057C35.9602 49.7178 37.7522 47.3998 39.385 44.9674C42.3011 44.7163 45.1968 44.2612 48.0513 43.6055C48.182 44.1421 48.2975 44.6679 48.398 45.1828C49.0393 48.4758 49.1313 51.4544 48.7073 53.7839ZM51.0272 39.8748C50.6779 39.9927 50.3179 40.1065 49.9526 40.2176C49.0575 37.3934 47.9746 34.6343 46.7114 31.9594C47.9272 29.3202 48.9677 26.6011 49.8259 23.8205C50.4806 24.0143 51.1165 24.2175 51.7285 24.433C57.6509 26.5091 61.2641 29.5825 61.2641 31.9445C61.2641 34.4651 57.3616 37.7364 51.0272 39.8748Z" fill="black"/>
<path d="M31.9805 37.5965C33.168 37.6004 34.3299 37.2457 35.3192 36.5772C36.3085 35.9088 37.0805 34.9566 37.5376 33.8414C37.9948 32.7262 38.1164 31.498 37.8871 30.3124C37.6578 29.1268 37.0879 28.0371 36.2495 27.1812C35.4112 26.3254 34.3422 25.742 33.1777 25.5048C32.0133 25.2676 30.8059 25.3873 29.7084 25.8488C28.6109 26.3103 27.6727 27.0928 27.0126 28.0973C26.3524 29.1017 26 30.2829 26 31.4912C25.9984 32.2918 26.1518 33.0848 26.4515 33.825C26.7512 34.5652 27.1914 35.238 27.7468 35.805C28.3022 36.372 28.962 36.8221 29.6884 37.1295C30.4149 37.4369 31.1937 37.5955 31.9805 37.5965Z" fill="black"/>
</svg>
